# ProBuilder 4.0.4
# https://unity3d.com/unity/features/worldbuilding/probuilder
# 04.04.2019 13:26:15

mtllib ./lamp.mtl
o lamp

g Cylinder-Merged
v -0.9952806 13.60171 -3.831204
v -0.9307708 13.52186 -3.760835
v -1.044631 13.59223 -3.717345
v -0.7594025 12.89403 -3.621229
v -0.905985 13.02321 -3.502807
v -1.115 13.52772 -3.637494
v -1.115 13.63572 -3.831204
v -1.185369 13.59223 -3.717345
v -1.234719 13.60171 -3.831204
v -1.044631 13.59223 -3.945064
v -1.185369 13.59223 -3.945064
v -1.115 13.52772 -4.024915
v -0.9307708 13.52186 -3.901574
v -0.905985 13.02321 -4.179193
v -0.7594025 12.89403 -4.060771
v -0.69697 12.89403 -3.841
v -1.299229 13.52186 -3.760835
v -1.324015 13.02321 -3.502807
v -1.470598 12.89403 -3.621229
v -1.115 12.89403 -3.42297
v -0.905985 12.76485 -3.502807
v -1.115 12.67426 -3.485403
v -0.7768066 12.68501 -3.711822
v -0.7768066 12.68501 -3.970178
v -0.8952286 12.53843 -3.841
v -0.905985 12.76485 -4.179193
v -1.115 12.89403 -4.25903
v -1.115 12.67426 -4.196598
v -1.324015 13.02321 -4.179193
v -1.299229 13.52186 -3.901574
v -1.470598 12.89403 -4.060771
v -1.334771 12.53843 -3.841
v -1.453193 12.68501 -3.711822
v -1.244178 12.55584 -3.631985
v -1.324015 12.76485 -3.502807
v -1.115 12.476 -3.841
v -0.9858217 12.55584 -3.631985
v -1.244178 12.55584 -4.050015
v -0.9858217 12.55584 -4.050015
v -1.453193 12.68501 -3.970178
v -1.324015 12.76485 -4.179193
v -1.53303 12.89403 -3.841
v -1.1581 13.599 -3.85
v -1.1581 14.56807 -3.85
v -1.146929 13.599 -3.823031
v -1.146929 14.56807 -3.823031
v -1.11996 13.599 -3.81186
v -1.11996 14.56807 -3.81186
v -1.092991 13.599 -3.823031
v -1.092991 14.56807 -3.823031
v -1.08182 13.599 -3.85
v -1.08182 14.56807 -3.85
v -1.092991 13.599 -3.876969
v -1.092991 14.56807 -3.876969
v -1.11996 13.599 -3.88814
v -1.11996 14.56807 -3.88814
v -1.146929 13.599 -3.876969
v -1.146929 14.56807 -3.876969
v -1.11996 13.599 -3.85
v -1.11996 14.56807 -3.85

vt -0.5257311 0
vt -0.809017 0.309017
vt -0.309017 0.5
vt -0.309017 1.5
vt -0.5257311 1
vt -0.809017 1.309017
vt 0.809017 1.5
vt 0.5 1.309017
vt 0.309017 1.809017
vt 0 1.525731
vt 0 0
vt 0 0.8506508
vt 0.309017 0.5
vt 0.5257311 0
vt -0.309017 -0.5
vt 0.309017 -0.5
vt 0 -0.8506508
vt -0.809017 -0.309017
vt -0.309017 1.809017
vt -0.5 1.309017
vt -0.809017 1.5
vt 0.309017 1.5
vt 0.809017 1.309017
vt 0.5257311 1
vt 0 1.850651
vt 0 1
vt 0.809017 0.309017
vt 0.8506508 1
vt 0.5 0.6909831
vt 0 0.4742689
vt 0 0.1493492
vt -0.8506508 1
vt -0.5 0.6909831
vt 0.809017 -0.309017
vt 0.809017 0.6909831
vt -0.809017 0.5
vt -0.309017 0.190983
vt 0.309017 0.190983
vt 0.809017 0.5
vt -0.809017 0.6909831
vt 0.3826835 0
vt 0.3826835 1
vt 0.2705981 0
vt 0.2705981 1
vt 0.6532816 0
vt 0.6532816 1
vt -0.3826834 0
vt -0.3826834 1
vt -0.6532815 0
vt -0.6532815 1
vt -0.270598 0
vt -0.270598 1
vt 0.5 0
vt 0.1464464 0.3535534
vt -0.5 0
vt -0.1464464 0.3535534
vt 0.5 0.5
vt -0.5 0.5
vt 0.4999999 2.980232E-08
vt 0.8535535 0.3535525
vt -0.8535534 0.3535525
vt 1 -2.980232E-08
vt -1 -2.980232E-08
vt 0.8535541 -0.3535534
vt -0.5 -1.490116E-08
vt -0.8535541 -0.3535534
vt 0.5 -0.5
vt -0.5 -0.5
vt 0.1464467 -0.3535525
vt -0.1464467 -0.3535525

vn 0.5838995 0.8101971 -0.05140053
vn 0.8018805 0.4943652 0.3355454
vn 0.3500232 0.7117429 0.6090203
vn 0.8509663 0.02767503 0.5244907
vn 0.50963 0.2552706 0.8216532
vn 0 0.4840244 0.8750545
vn 0.2680362 0.9435223 0.1947361
vn -0.3412549 0.7662166 0.5444788
vn -0.05690091 0.9975235 -0.04134018
vn -0.525732 0.8506502 -3.158623E-08
vn 0.337678 0.7711592 -0.5397102
vn -0.337678 0.7711591 -0.5397102
vn -6.417134E-09 0.5009619 -0.8654693
vn 0.800703 0.5004939 -0.3292121
vn 0.5064651 0.2708895 -0.8186037
vn 0.852181 0.03252906 -0.522235
vn 0.9991879 0.0402949 0.0001171699
vn -0.8018806 0.4943651 0.3355454
vn -0.5096301 0.2552706 0.8216532
vn -0.8509663 0.02767509 0.5244908
vn 5.297481E-09 0.01721119 0.9998519
vn 0.5000001 -0.3090173 0.8090169
vn 6.317251E-09 -0.5257319 0.8506503
vn 0.8090167 -0.5000003 0.3090173
vn 0.8090167 -0.5000003 -0.3090173
vn 0.5257307 -0.8506511 0
vn 0.4999998 -0.3090172 -0.8090171
vn 0 0.02670877 -0.9996433
vn 6.317251E-09 -0.5257316 -0.8506505
vn -0.5064651 0.2708895 -0.8186037
vn -0.800703 0.5004938 -0.3292121
vn -0.852181 0.03252912 -0.522235
vn -0.5257307 -0.850651 6.317251E-09
vn -0.8090168 -0.5000002 0.3090173
vn -0.3090166 -0.8090171 0.5000001
vn -0.5000001 -0.3090173 0.8090169
vn 0 -1 0
vn 0.3090166 -0.8090171 0.5000001
vn -0.3090167 -0.8090171 -0.5000001
vn 0.3090166 -0.8090171 -0.5000001
vn -0.8090168 -0.5000002 -0.3090173
vn -0.4999998 -0.3090171 -0.8090171
vn -0.9991879 0.04029494 0.0001171699
vn -1 0 0
vn -0.7071081 0 0.7071055
vn -7.903168E-07 0 1
vn 0.7071076 0 0.7071061
vn 1 0 0
vn 0.7071076 0 -0.7071061
vn -7.903168E-07 0 -1
vn -0.7071081 0 -0.7071055
vn 0 1 0

g Cylinder-Merged_0
usemtl свет
f 3/3/3 2/2/2 1/1/1
f 5/6/5 4/5/4 2/4/2
f 3/9/3 5/8/5 2/7/2
f 6/10/6 5/8/5 3/9/3
f 7/11/7 3/3/7 1/1/7
f 8/13/8 6/12/6 3/3/3
f 7/11/9 8/13/8 3/3/3
f 9/14/10 8/13/8 7/11/9
f 10/15/11 7/11/9 1/1/1
f 11/16/12 9/14/10 7/11/9
f 10/15/11 11/16/12 7/11/9
f 12/17/13 11/16/12 10/15/11
f 13/18/14 10/15/11 1/1/1
f 14/20/15 12/10/13 10/19/11
f 13/21/14 14/20/15 10/19/11
f 15/24/16 14/23/15 13/22/14
f 2/4/2 13/22/14 1/25/1
f 16/26/17 15/24/16 13/22/14
f 2/4/2 16/26/17 13/22/14
f 4/5/4 16/26/17 2/4/2
f 17/27/18 8/13/8 9/14/10
f 18/20/19 6/10/6 8/19/8
f 17/21/18 18/20/19 8/19/8
f 19/24/20 18/23/19 17/22/18
f 20/26/21 5/8/5 6/10/6
f 21/29/22 4/28/4 5/8/5
f 20/26/21 21/29/22 5/8/5
f 22/30/23 21/29/22 20/26/21
f 23/3/24 16/26/17 4/5/4
f 24/13/25 15/24/16 16/26/17
f 23/3/24 24/13/25 16/26/17
f 25/31/26 24/13/25 23/3/24
f 26/33/27 14/20/15 15/32/16
f 27/26/28 12/10/13 14/20/15
f 26/33/27 27/26/28 14/20/15
f 28/30/29 27/26/28 26/33/27
f 29/8/30 11/9/12 12/10/13
f 30/34/31 9/14/10 11/16/12
f 29/8/30 30/7/31 11/9/12
f 31/5/32 30/4/31 29/6/30
f 34/3/35 33/2/34 32/1/33
f 35/35/36 19/24/20 33/13/34
f 34/37/35 35/33/36 33/36/34
f 22/30/23 35/33/36 34/37/35
f 36/11/37 34/3/35 32/1/33
f 37/13/38 22/12/23 34/3/35
f 36/11/37 37/13/38 34/3/35
f 25/14/26 37/13/38 36/11/37
f 38/15/39 36/11/37 32/1/33
f 39/16/40 25/14/26 36/11/37
f 38/15/39 39/16/40 36/11/37
f 28/17/29 39/16/40 38/15/39
f 40/18/41 38/15/39 32/1/33
f 41/29/42 28/30/29 38/38/39
f 40/39/41 41/29/42 38/38/39
f 31/5/32 41/40/42 40/3/41
f 33/13/34 40/3/41 32/31/33
f 42/26/43 31/5/32 40/3/41
f 33/13/34 42/26/43 40/3/41
f 19/24/20 42/26/43 33/13/34
f 20/26/21 35/33/36 22/30/23
f 18/20/19 19/32/20 35/33/36
f 20/26/21 18/20/19 35/33/36
f 6/10/6 18/20/19 20/26/21
f 23/27/24 37/13/38 25/14/26
f 21/29/22 22/30/23 37/38/38
f 23/39/24 21/29/22 37/38/38
f 4/5/4 21/40/22 23/3/24
f 26/33/27 39/37/40 28/30/29
f 24/34/25 25/14/26 39/16/40
f 26/33/27 24/36/25 39/37/40
f 15/24/16 24/13/25 26/35/27
f 29/8/30 41/29/42 31/28/32
f 27/26/28 28/30/29 41/29/42
f 29/8/30 27/26/28 41/29/42
f 12/10/13 27/26/28 29/8/30
f 17/22/18 42/26/43 19/24/20
f 30/4/31 31/5/32 42/26/43
f 17/22/18 30/4/31 42/26/43
f 9/25/10 30/4/31 17/22/18

g Cylinder-Merged_1
usemtl black
f 43/11/37 59/53/37 45/54/37
f 45/54/37 59/53/37 47/57/37
f 47/57/37 59/59/37 49/60/37
f 49/60/37 59/53/37 51/62/37
f 51/62/37 59/53/37 53/64/37
f 53/64/37 59/53/37 55/67/37
f 55/67/37 59/53/37 57/69/37
f 57/69/37 59/53/37 43/11/37
f 46/56/52 60/55/52 44/11/52
f 48/58/52 60/55/52 46/56/52
f 50/61/52 60/55/52 48/58/52
f 52/63/52 60/55/52 50/61/52
f 54/66/52 60/65/52 52/63/52
f 56/68/52 60/65/52 54/66/52
f 58/70/52 60/55/52 56/68/52
f 44/11/52 60/55/52 58/70/52
f 46/42/45 44/26/44 43/11/44
f 43/11/44 45/41/45 46/42/45
f 48/46/46 46/44/45 45/43/45
f 45/43/45 47/45/46 48/46/46
f 50/46/47 48/44/46 47/43/46
f 47/43/46 49/45/47 50/46/47
f 52/42/48 50/26/47 49/11/47
f 49/11/47 51/41/48 52/42/48
f 54/26/49 52/48/48 51/47/48
f 51/47/48 53/11/49 54/26/49
f 56/52/50 54/50/49 53/49/49
f 53/49/49 55/51/50 56/52/50
f 58/52/51 56/50/50 55/49/50
f 55/49/50 57/51/51 58/52/51
f 44/26/44 58/48/51 57/47/51
f 57/47/51 43/11/44 44/26/44

