# ProBuilder 4.0.4
# https://unity3d.com/unity/features/worldbuilding/probuilder
# 04.04.2019 13:47:28

mtllib ./лампа_с_плафоном.mtl
o лампа с плафоном

g Cylinder-Merged-Merged
v -3.164523 11.9925 -3.849885
v -3.1648 12.06566 -3.85
v -2.563975 11.9925 -2.400032
v -2.564251 12.06566 -2.400147
v -1.114121 11.9925 -1.799483
v -1.114398 12.06566 -1.799598
v 0.3357315 11.9925 -2.400032
v 0.3354547 12.06566 -2.400147
v 0.93628 11.9925 -3.849885
v 0.9360034 12.06566 -3.85
v 0.3357315 11.9925 -5.299737
v 0.3354547 12.06566 -5.299853
v -1.114121 11.9925 -5.900286
v -1.114398 12.06566 -5.900402
v -2.563974 11.9925 -5.299738
v -2.564251 12.06566 -5.299853
v -3.034463 11.99249 -3.849885
v -1.120164 13.19152 -3.847611
v -2.472008 11.99249 -2.491998
v -1.114398 13.2823 -3.85
v -1.114121 11.99249 -1.929543
v 0.2437654 11.99249 -2.491997
v 0.8062201 11.99249 -3.849885
v 0.2437656 11.99249 -5.207771
v -1.114121 11.99249 -5.770226
v -2.472008 11.99249 -5.207772
v -0.9882882 13.17287 -3.830609
v -0.9200174 13.08836 -3.756137
v -1.040515 13.16284 -3.710111
v -0.7386583 12.42393 -3.608392
v -0.8937867 12.56064 -3.483066
v -1.114987 13.09456 -3.625605
v -1.114987 13.20886 -3.830609
v -1.189459 13.16284 -3.710111
v -1.241686 13.17287 -3.830609
v -1.040515 13.16284 -3.951107
v -1.189459 13.16284 -3.951107
v -1.114987 13.09456 -4.035613
v -0.9200174 13.08836 -3.905081
v -0.8937867 12.56064 -4.198886
v -0.7386583 12.42393 -4.07356
v -0.672586 12.42393 -3.840976
v -1.309957 13.08836 -3.756137
v -1.336188 12.56064 -3.483066
v -1.491316 12.42393 -3.608392
v -1.114987 12.42393 -3.398574
v -0.8937867 12.28722 -3.483066
v -1.114987 12.19135 -3.464647
v -0.7570771 12.20273 -3.704266
v -0.7570771 12.20273 -3.977685
v -0.8824031 12.0476 -3.840976
v -0.8937867 12.28722 -4.198886
v -1.114987 12.42393 -4.283377
v -1.114987 12.19135 -4.217304
v -1.336188 12.56064 -4.198886
v -1.309957 13.08836 -3.905081
v -1.491316 12.42393 -4.07356
v -1.347571 12.0476 -3.840976
v -1.472897 12.20273 -3.704266
v -1.251697 12.06602 -3.619775
v -1.336188 12.28722 -3.483066
v -1.114987 11.98153 -3.840976
v -0.9782778 12.06602 -3.619775
v -1.251697 12.06602 -4.062176
v -0.9782778 12.06602 -4.062176
v -1.472897 12.20273 -3.977685
v -1.336188 12.28722 -4.198886
v -1.557388 12.42393 -3.840976
v -1.1606 13.17 -3.8505
v -1.1606 14.19556 -3.8505
v -1.148778 13.17 -3.821959
v -1.148778 14.19556 -3.821959
v -1.120236 13.17 -3.810136
v -1.120236 14.19556 -3.810136
v -1.091695 13.17 -3.821959
v -1.091695 14.19556 -3.821959
v -1.079872 13.17 -3.8505
v -1.079872 14.19556 -3.8505
v -1.091695 13.17 -3.879042
v -1.091695 14.19556 -3.879042
v -1.120236 13.17 -3.890864
v -1.120236 14.19556 -3.890864
v -1.148778 13.17 -3.879042
v -1.148778 14.19556 -3.879042
v -1.120236 13.17 -3.8505
v -1.120236 14.19556 -3.8505

vt -0.001100808 0.5858703
vt 2.965331E-06 1.001065
vt 0.3827322 0.5848018
vt 0.3838361 0.9999967
vt 0.2690474 0.5858734
vt 0.270604 1.001501
vt 0.6533486 0.5843663
vt 0.6549051 0.9999936
vt 0.269506 0.585789
vt 0.270601 1.000976
vt 0.6533303 0.5847287
vt 0.6544253 0.9999156
vt -4.470348E-08 0.5857036
vt 7.450581E-08 0.9998367
vt 0.3826832 0.5857036
vt 0.3826835 0.9998367
vt -0.3827324 0.5846953
vt -0.3838272 0.9998822
vt 0.001091734 0.5857556
vt -2.995133E-06 1.000942
vt -0.6533486 0.5843668
vt -0.654905 0.999994
vt -0.2690474 0.5858738
vt -0.2706038 1.001501
vt -0.6533301 0.5848358
vt -0.654434 1.000031
vt -0.270601 1.001099
vt -0.3828263 0.5858672
vt -0.3826835 1.000132
vt 0.0001429915 1
vt 3.146632 2.981627
vt -0.1705106 7.468718
vt -0.9166294 1.448506
vt -0.09552389 1.003058
vt 0.09581792 7.905344
vt 0.3283147 2.487654
vt -0.06746778 2.495058
vt -0.546641 7.397862
vt -1.378719 0.7004118
vt -0.5788107 1.963893
vt 0.4658226 7.977526
vt 3.39929 3.708251
vt 2.367117 3.203497
vt -0.4584942 7.435366
vt -1.487439 1.508677
vt -0.4462276 1.076679
vt 0.3705316 7.884562
vt 0.852954 2.910666
vt -0.0624392 1.953943
vt -0.283177 7.333144
vt -0.4570823 0.5319963
vt -0.5679245 1.821642
vt 0.2182211 7.930029
vt 3.599142 3.41744
vt 3.521874 2.912059
vt 0.218027 7.414022
vt -0.531795 1.388595
vt -0.4782069 0.9412274
vt -0.2868662 7.843512
vt -0.0543685 2.425823
vt 0.8644073 2.462887
vt 0.3764617 7.374191
vt -0.4702046 0.6820436
vt -1.50269 1.938281
vt -0.4580568 7.951915
vt 2.475411 3.682642
vt 3.310707 3.219507
vt 0.4647838 7.459687
vt -0.5601847 1.540666
vt -1.370107 1.10229
vt -0.5533482 7.910172
vt -0.07092583 2.936275
vt 0.3204233 2.016907
vt 0.101334 7.392176
vt -0.08319104 0.5915108
vt -0.950608 1.883473
vt -0.1644621 7.991861
vt 3.216461 3.479275
vt 0.1458308 0.3551897
vt 0.499384 0.5016694
vt 0.1682727 0.3327956
vt 0.4993995 0.4699838
vt -0.001568675 0.0007058382
vt 0.1448776 0.3542594
vt 0.03014708 0.0007058382
vt 0.1673039 0.331833
vt 0.5007448 0.5016606
vt 0.8542981 0.3552134
vt 0.5007448 0.4699447
vt 0.8318717 0.3327873
vt 0.8552536 0.3542562
vt 1.0017 0.0007026196
vt 0.8328272 0.33183
vt 0.9699842 0.0007026196
vt 1.0017 -0.0006463528
vt 0.8552536 -0.3541999
vt 0.9699841 -0.0006463528
vt 0.8328273 -0.3317735
vt 0.8542981 -0.3551573
vt 0.5007448 -0.5016046
vt 0.8318717 -0.3327308
vt 0.5007448 -0.4698884
vt 0.4993895 -0.5016077
vt 0.1458363 -0.3551607
vt 0.4993895 -0.4698917
vt 0.1682627 -0.3327342
vt 0.1448778 -0.3542033
vt -0.001568556 -0.0006495714
vt 0.1673042 -0.331777
vt 0.03014708 -0.0006495714
vt -0.5257311 0
vt -0.809017 0.309017
vt -0.309017 0.5
vt -0.309017 1.5
vt -0.5257311 1
vt -0.809017 1.309017
vt 0.809017 1.5
vt 0.5 1.309017
vt 0.309017 1.809017
vt 0 1.525731
vt 0 0
vt 0 0.8506508
vt 0.309017 0.5
vt 0.5257311 0
vt -0.309017 -0.5
vt 0.309017 -0.5
vt 0 -0.8506508
vt -0.809017 -0.309017
vt -0.309017 1.809017
vt -0.5 1.309017
vt -0.809017 1.5
vt 0.309017 1.5
vt 0.809017 1.309017
vt 0.5257311 1
vt 0 1.850651
vt 0.809017 0.309017
vt 0.8506508 1
vt 0.5 0.6909831
vt 0 0.4742689
vt 0 0.1493492
vt -0.8506508 1
vt -0.5 0.6909831
vt 0.809017 -0.309017
vt 0.809017 0.6909831
vt -0.809017 0.5
vt -0.309017 0.190983
vt 0.309017 0.190983
vt 0.809017 0.5
vt -0.809017 0.6909831
vt 0.3826835 0
vt 0.3826835 1
vt 0.2705981 0
vt 0.2705981 1
vt 0.6532816 0
vt 0.6532816 1
vt -0.3826834 0
vt -0.6532815 0
vt -0.6532815 1
vt -0.270598 0
vt -0.270598 1
vt 0.5 -5.960464E-08
vt 0.146446 0.3535534
vt -0.5 0
vt -0.1464459 0.3535534
vt 0.5 0
vt 0.5 0.5
vt -0.5 0.5
vt 0.4999999 0.5
vt 0.8535535 0.3535541
vt -0.8535534 0.3535541
vt 1 -2.980232E-08
vt -1 1.490116E-08
vt 0.8535541 -0.3535534
vt -0.8535541 -0.3535534
vt 0.5 -0.5
vt -0.4999999 -1.490116E-08
vt -0.4999999 -0.5
vt 0.1464466 -0.3535541
vt -0.5 -0.5
vt -0.1464467 -0.3535541

vn -0.6773643 -0.7356478 5.789506E-07
vn -0.8617296 0.5073677 4.737E-07
vn -0.4794999 -0.7349551 0.4795007
vn -0.6089509 0.5082883 0.6089514
vn -5.914694E-07 -0.7339757 0.6791757
vn -4.955015E-07 0.5095858 0.8604199
vn 0.4807787 -0.7332822 0.4807796
vn 0.6080242 0.510502 0.6080249
vn 0.6799224 -0.7332841 -5.920834E-07
vn 0.8598779 0.5104997 -5.222011E-07
vn 0.4802455 -0.7339808 -0.4802463
vn 0.6084108 0.50958 -0.6084114
vn 7.109036E-07 -0.7349601 -0.6781103
vn 5.861172E-07 0.5082822 -0.8611906
vn -0.4789667 -0.73565 -0.4789676
vn -0.6093357 0.5073647 -0.6093366
vn 0.2728331 -0.9620613 -3.808462E-05
vn 0.0007900405 -0.9999996 -0.0002971723
vn 0.1929411 -0.9620664 -0.192878
vn 2.213723E-08 1 -4.427447E-09
vn 0.0001011116 -0.9621778 -0.2724222
vn -0.1921824 -0.9623297 -0.1923211
vn -0.2715188 -0.9624332 -3.78027E-05
vn -0.1919739 -0.9624282 0.1920366
vn 0.0001006884 -0.9623176 0.2719278
vn 0.1927312 -0.9621658 0.1925922
vn 0.5839008 0.8101962 -0.05140134
vn 0.8018809 0.4943643 0.3355457
vn 0.3500233 0.7117419 0.6090215
vn 0.850966 0.02767526 0.5244911
vn 0.5096301 0.2552707 0.8216532
vn -8.409839E-08 0.4840241 0.8750547
vn 0.2680353 0.943522 0.194739
vn -0.3412549 0.7662156 0.5444803
vn -0.05690086 0.9975235 -0.0413408
vn -0.5257331 0.8506495 -3.790351E-08
vn 0.3376778 0.7711583 -0.5397117
vn -0.3376779 0.7711583 -0.5397115
vn -8.663127E-08 0.5009618 -0.8654694
vn 0.8007034 0.5004931 -0.3292123
vn 0.506465 0.2708898 -0.8186036
vn 0.8521811 0.03252935 -0.5222348
vn 0.9991878 0.04029527 0.0001172552
vn -0.8018809 0.4943644 0.3355457
vn -0.5096303 0.2552707 0.8216531
vn -0.8509661 0.02767527 0.524491
vn 2.648741E-09 0.01721106 0.9998519
vn 0.4999998 -0.3090169 0.8090172
vn 0 -0.525731 0.8506508
vn 0.8090169 -0.4999998 0.3090176
vn 0.8090169 -0.4999998 -0.3090174
vn 0.52573 -0.8506515 1.137105E-07
vn 0.4999993 -0.3090171 -0.8090174
vn 2.654158E-09 0.02670838 -0.9996433
vn 0 -0.5257309 -0.8506509
vn -0.5064652 0.2708898 -0.8186035
vn -0.8007034 0.5004931 -0.3292122
vn -0.8521812 0.03252935 -0.5222347
vn -0.5257301 -0.8506514 1.200278E-07
vn -0.8090169 -0.4999998 0.3090175
vn -0.3090164 -0.8090169 0.5000005
vn -0.5 -0.3090169 0.8090171
vn -4.753635E-08 -1 1.373272E-07
vn 0.3090163 -0.8090169 0.5000006
vn -0.3090162 -0.8090171 -0.5000004
vn 0.3090161 -0.8090171 -0.5000005
vn -0.8090171 -0.4999998 -0.3090173
vn -0.4999994 -0.3090171 -0.8090174
vn -0.9991878 0.04029522 0.0001172605
vn -1 0 0
vn -0.7071068 0 0.7071068
vn 0 0 1
vn 0.7071068 0 0.7071068
vn 1 0 0
vn 0.7071068 0 -0.7071068
vn 0 0 -1
vn -0.7071068 0 -0.7071068

g Cylinder-Merged-Merged_0
usemtl New_Material
f 17/31/17 18/32/18 19/33/19
f 19/37/19 18/38/18 21/39/21
f 21/43/21 18/44/18 22/45/22
f 22/49/22 18/50/18 23/51/23
f 23/55/23 18/56/18 24/57/24
f 24/61/24 18/62/18 25/63/25
f 25/67/25 18/68/18 26/69/26
f 26/73/26 18/74/18 17/75/17
f 4/36/4 20/35/20 2/34/2
f 6/42/6 20/41/20 4/40/4
f 8/48/8 20/47/20 6/46/6
f 10/54/10 20/53/20 8/52/8
f 12/60/12 20/59/20 10/58/10
f 14/66/14 20/65/20 12/64/12
f 16/72/16 20/71/20 14/70/14
f 2/78/2 20/77/20 16/76/16
f 4/4/4 2/2/2 1/1/1
f 1/1/1 3/3/3 4/4/4
f 6/8/6 4/6/4 3/5/3
f 3/5/3 5/7/5 6/8/6
f 8/12/8 6/10/6 5/9/5
f 5/9/5 7/11/7 8/12/8
f 10/16/10 8/14/8 7/13/7
f 7/13/7 9/15/9 10/16/10
f 12/20/12 10/18/10 9/17/9
f 9/17/9 11/19/11 12/20/12
f 14/24/14 12/22/12 11/21/11
f 11/21/11 13/23/13 14/24/14
f 16/27/16 14/26/14 13/25/13
f 13/25/13 15/23/15 16/27/16
f 2/30/2 16/29/16 15/28/15
f 15/28/15 1/13/1 2/30/2
f 21/82/21 5/80/5 3/79/3
f 3/79/3 19/81/19 21/82/21
f 19/86/19 3/84/3 1/83/1
f 1/83/1 17/85/17 19/86/19
f 22/90/22 7/88/7 5/87/5
f 5/87/5 21/89/21 22/90/22
f 23/94/23 9/92/9 7/91/7
f 7/91/7 22/93/22 23/94/23
f 24/98/24 11/96/11 9/95/9
f 9/95/9 23/97/23 24/98/24
f 25/102/25 13/100/13 11/99/11
f 11/99/11 24/101/24 25/102/25
f 26/106/26 15/104/15 13/103/13
f 13/103/13 25/105/25 26/106/26
f 17/110/17 1/108/1 15/107/15
f 15/107/15 26/109/26 17/110/17

g Cylinder-Merged-Merged_1
usemtl свет
f 29/113/29 28/112/28 27/111/27
f 31/116/31 30/115/30 28/114/28
f 29/119/29 31/118/31 28/117/28
f 32/120/32 31/118/31 29/119/29
f 33/121/33 29/113/33 27/111/33
f 34/123/34 32/122/32 29/113/29
f 33/121/35 34/123/34 29/113/29
f 35/124/36 34/123/34 33/121/35
f 36/125/37 33/121/35 27/111/27
f 37/126/38 35/124/36 33/121/35
f 36/125/37 37/126/38 33/121/35
f 38/127/39 37/126/38 36/125/37
f 39/128/40 36/125/37 27/111/27
f 40/130/41 38/120/39 36/129/37
f 39/131/40 40/130/41 36/129/37
f 41/134/42 40/133/41 39/132/40
f 28/114/28 39/132/40 27/135/27
f 42/30/43 41/134/42 39/132/40
f 28/114/28 42/30/43 39/132/40
f 30/115/30 42/30/43 28/114/28
f 43/136/44 34/123/34 35/124/36
f 44/130/45 32/120/32 34/129/34
f 43/131/44 44/130/45 34/129/34
f 45/134/46 44/133/45 43/132/44
f 46/30/47 31/118/31 32/120/32
f 47/138/48 30/137/30 31/118/31
f 46/30/47 47/138/48 31/118/31
f 48/139/49 47/138/48 46/30/47
f 49/113/50 42/30/43 30/115/30
f 50/123/51 41/134/42 42/30/43
f 49/113/50 50/123/51 42/30/43
f 51/140/52 50/123/51 49/113/50
f 52/142/53 40/130/41 41/141/42
f 53/30/54 38/120/39 40/130/41
f 52/142/53 53/30/54 40/130/41
f 54/139/55 53/30/54 52/142/53
f 55/118/56 37/119/38 38/120/39
f 56/143/57 35/124/36 37/126/38
f 55/118/56 56/117/57 37/119/38
f 57/115/58 56/114/57 55/116/56
f 60/113/61 59/112/60 58/111/59
f 61/144/62 45/134/46 59/123/60
f 60/146/61 61/142/62 59/145/60
f 48/139/49 61/142/62 60/146/61
f 62/121/63 60/113/61 58/111/59
f 63/123/64 48/122/49 60/113/61
f 62/121/63 63/123/64 60/113/61
f 51/124/52 63/123/64 62/121/63
f 64/125/65 62/121/63 58/111/59
f 65/126/66 51/124/52 62/121/63
f 64/125/65 65/126/66 62/121/63
f 54/127/55 65/126/66 64/125/65
f 66/128/67 64/125/65 58/111/59
f 67/138/68 54/139/55 64/147/65
f 66/148/67 67/138/68 64/147/65
f 57/115/58 67/149/68 66/113/67
f 59/123/60 66/113/67 58/140/59
f 68/30/69 57/115/58 66/113/67
f 59/123/60 68/30/69 66/113/67
f 45/134/46 68/30/69 59/123/60
f 46/30/47 61/142/62 48/139/49
f 44/130/45 45/141/46 61/142/62
f 46/30/47 44/130/45 61/142/62
f 32/120/32 44/130/45 46/30/47
f 49/136/50 63/123/64 51/124/52
f 47/138/48 48/139/49 63/147/64
f 49/148/50 47/138/48 63/147/64
f 30/115/30 47/149/48 49/113/50
f 52/142/53 65/146/66 54/139/55
f 50/143/51 51/124/52 65/126/66
f 52/142/53 50/145/51 65/146/66
f 41/134/42 50/123/51 52/144/53
f 55/118/56 67/138/68 57/137/58
f 53/30/54 54/139/55 67/138/68
f 55/118/56 53/30/54 67/138/68
f 38/120/39 53/30/54 55/118/56
f 43/132/44 68/30/69 45/134/46
f 56/114/57 57/115/58 68/30/69
f 43/132/44 56/114/57 68/30/69
f 35/135/36 56/114/57 43/132/44

g Cylinder-Merged-Merged_2
usemtl black
f 69/121/63 85/161/63 71/162/63
f 71/162/63 85/165/63 73/166/63
f 73/168/63 85/161/63 75/169/63
f 75/169/63 85/165/63 77/171/63
f 77/171/63 85/165/63 79/173/63
f 79/173/63 85/165/63 81/175/63
f 81/175/63 85/165/63 83/178/63
f 83/178/63 85/165/63 69/121/63
f 72/164/20 86/163/20 70/121/20
f 74/167/20 86/163/20 72/164/20
f 76/170/20 86/163/20 74/167/20
f 78/172/20 86/163/20 76/170/20
f 80/174/20 86/163/20 78/172/20
f 82/177/20 86/176/20 80/174/20
f 84/180/20 86/163/20 82/179/20
f 70/121/20 86/176/20 84/180/20
f 72/151/71 70/30/70 69/121/70
f 69/121/70 71/150/71 72/151/71
f 74/155/72 72/153/71 71/152/71
f 71/152/71 73/154/72 74/155/72
f 76/155/73 74/153/72 73/152/72
f 73/152/72 75/154/73 76/155/73
f 78/151/74 76/30/73 75/121/73
f 75/121/73 77/150/74 78/151/74
f 80/30/75 78/29/74 77/156/74
f 77/156/74 79/121/75 80/30/75
f 82/160/76 80/158/75 79/157/75
f 79/157/75 81/159/76 82/160/76
f 84/160/77 82/158/76 81/157/76
f 81/157/76 83/159/77 84/160/77
f 70/30/70 84/29/77 83/156/77
f 83/156/77 69/121/70 70/30/70

