# ProBuilder 4.0.4
# https://unity3d.com/unity/features/worldbuilding/probuilder
# 04.04.2019 10:33:50

mtllib ./свет.mtl
o свет

g Icosphere
v 3.809103 7.627651 -4.795144
v 3.878939 7.277 -4.486126
v 3.755679 7.586017 -4.295144
v 3.889203 6.777 -4.269413
v 3.80276 7.086017 -3.986127
v 3.6795 7.302731 -3.944493
v 3.6795 7.777 -4.795144
v 3.603321 7.586017 -4.295144
v 3.549897 7.627651 -4.795144
v 3.755679 7.586017 -5.295144
v 3.603321 7.586017 -5.295144
v 3.6795 7.302731 -5.645794
v 3.878939 7.277 -5.104161
v 3.80276 7.086017 -5.604161
v 3.889203 6.777 -5.320875
v 3.92602 6.777 -4.795144
v 3.491233 7.514281 -4.339478
v 3.55624 7.086017 -3.986127
v 3.476099 6.777 -4.01992
v 3.6795 6.777 -3.795144
v 3.80276 6.467983 -3.986127
v 3.6795 6.251269 -3.944493
v 3.878939 6.277 -4.486126
v 3.878939 6.277 -5.104161
v 3.809103 5.926349 -4.795144
v 3.80276 6.467983 -5.604161
v 3.6795 6.777 -5.795144
v 3.6795 6.251269 -5.645794
v 3.55624 7.086017 -5.604161
v 3.491233 7.514281 -5.250808
v 3.476099 6.777 -5.570366
v 3.549897 5.926349 -4.795144
v 3.491233 6.039719 -4.339478
v 3.603321 5.967983 -4.295144
v 3.55624 6.467983 -3.986127
v 3.6795 5.777 -4.795144
v 3.755679 5.967983 -4.295144
v 3.603321 5.967983 -5.295144
v 3.755679 5.967983 -5.295144
v 3.491233 6.039719 -5.250808
v 3.55624 6.467983 -5.604161
v 3.325957 6.483617 -4.944197
v 3.320711 6.739175 -5.054964
v 3.301893 6.739175 -4.786255
v 3.325957 6.483617 -4.628312
v 3.320711 6.739175 -4.517545
v 3.325957 6.994734 -4.628312
v 3.325957 6.994734 -4.944197

vt -0.5257311 0
vt -0.809017 0.309017
vt -0.309017 0.5
vt -0.309017 1.5
vt -0.5257311 1
vt -0.809017 1.309017
vt 0.809017 1.5
vt 0.5 1.309017
vt 0.309017 1.809017
vt 0 1.525731
vt 0 0
vt 0 0.8506508
vt 0.309017 0.5
vt 0.5257311 0
vt -0.309017 -0.5
vt 0.309017 -0.5
vt 0 -0.8506508
vt -0.809017 -0.309017
vt -0.309017 1.809017
vt -0.5 1.309017
vt -0.809017 1.5
vt 0.309017 1.5
vt 0.809017 1.309017
vt 0.5257311 1
vt 0 1.850651
vt 0 1
vt 0.809017 0.309017
vt 0.8506508 1
vt 0.5 0.6909831
vt 0 0.4742689
vt 0 0.1493492
vt -0.8506508 1
vt -0.5 0.6909831
vt 0.809017 -0.309017
vt 0.809017 0.6909831
vt -0.809017 0.5
vt -0.309017 0.190983
vt 0.309017 0.190983
vt 0.809017 0.5
vt -0.809017 0.6909831
vt 0.3179546 0.547709
vt 0.1684381 1.339615
vt 1.034345 1.024495
vt 0.9825183 1.298988
vt -0.4605011 -0.4556646
vt -0.4605011 0.4556656
vt 0.3876815 -0.1490536
vt 0.3876815 0.1668315
vt -0.3018246 1.317039
vt -0.1467438 0.5262036
vt -1.003445 0.759753
vt -0.9496899 0.485631
vt 0.1279537 0.5297538
vt 0.287796 1.31964
vt 0.942039 0.4892299
vt 0.9974446 0.7630231
vt -0.7818113 0.4556656
vt -0.7818113 -0.4556646
vt -1.585882 0.1668315
vt -1.585882 -0.1490536
vt -0.1880647 1.34051
vt -0.3324845 0.5476592
vt -0.9910055 1.299834
vt -1.041065 1.025014

vn 0.1437529 0.7487835 0.3150939
vn 0.2082026 0.3806567 0.3765731
vn 0.2097024 0 0.5257311
vn 0.12326 0.309017 0.809017
vn 0.057996 0.7572298 0.6093081
vn 0 0.5257311 0.8506508
vn 0.06607597 0.9435222 0.1947388
vn -0.04006255 0.8440675 0.5110183
vn -0.03483681 0.9899648 0
vn -0.06540205 0.9641656 -2.729715E-08
vn 0.06607597 0.9435222 -0.1947388
vn -0.04006264 0.8440675 -0.5110182
vn 0.05799599 0.7572298 -0.609308
vn 1.557328E-09 0.5257311 -0.8506508
vn 0.1437529 0.7487835 -0.3150939
vn 0.12326 0.309017 -0.809017
vn 0.2082026 0.3806567 -0.3765731
vn 0.2097024 6.317249E-09 -0.5257311
vn 0.1917599 0.6284284 0
vn 0.24652 5.28182E-09 0
vn -0.08456261 0.7964333 0.4980237
vn -0.0680043 0.312777 0.9088858
vn -0.0887698 0 0.9329169
vn -2.604149E-09 0 1
vn 0.12326 -0.309017 0.809017
vn 0 -0.5257311 0.8506508
vn 0.1994389 -0.5000001 0.309017
vn 0.1994389 -0.5 -0.309017
vn 0.1296032 -0.8506508 -6.317249E-09
vn 0.12326 -0.309017 -0.809017
vn -2.604149E-09 0 -1
vn 0 -0.5257311 -0.8506508
vn -0.06800459 0.312777 -0.9088854
vn -0.08456288 0.7964332 -0.4980232
vn -0.0887704 0 -0.932916
vn -0.06540206 -0.9641656 -2.729714E-08
vn -0.08456264 -0.7964333 0.4980236
vn -0.04006257 -0.8440676 0.5110182
vn -0.06800431 -0.312777 0.9088858
vn 0 -1 5.28182E-09
vn 0.07617888 -0.809017 0.5
vn -0.04006265 -0.8440676 -0.5110182
vn 0.07617888 -0.809017 -0.5
vn -0.08456291 -0.7964332 -0.4980231
vn -0.0680046 -0.312777 -0.9088854
vn -0.2047504 -0.4836404 -0.2761467
vn -0.2071261 -0.001680476 -0.5422738
vn -0.24652 -4.595187E-07 -1.478911E-07
vn -0.2042408 -0.4854095 0.2792348
vn -0.2060321 -0.001663627 0.5490891
vn -0.2076961 0.4658633 0.2704527
vn -0.2081589 0.4641941 -0.2674516
vn -0.1543983 -0.6654965 -0.4060154
vn -0.1560184 -0.003289699 -0.77424
vn -0.1648744 0.6320021 -0.3914972
vn -0.1634244 0.6346499 0.3971766
vn -0.1527247 -0.003250013 0.7849721
vn -0.1527802 -0.6681244 0.4117309

g Icosphere_0
usemtl ProBuilderDefault
f 3/3/1 2/2/1 1/1/1
f 7/11/7 3/3/7 1/1/7
f 10/15/11 7/11/11 1/1/11
f 13/18/15 10/15/15 1/1/15
f 2/4/19 13/22/19 1/25/19
f 20/26/24 5/8/4 6/10/6
f 21/29/25 4/28/3 5/8/4
f 20/26/24 21/29/25 5/8/4
f 22/30/26 21/29/25 20/26/24
f 23/3/27 16/26/20 4/5/3
f 24/13/28 15/24/18 16/26/20
f 23/3/27 24/13/28 16/26/20
f 25/31/29 24/13/28 23/3/27
f 26/33/30 14/20/16 15/32/18
f 27/26/31 12/10/14 14/20/16
f 26/33/30 27/26/31 14/20/16
f 28/30/32 27/26/31 26/33/30
f 37/13/41 22/12/26 34/3/38
f 36/11/40 37/13/41 34/3/38
f 25/14/29 37/13/41 36/11/40
f 39/16/43 25/14/29 36/11/40
f 23/27/27 37/13/41 25/14/29
f 21/29/25 22/30/26 37/38/41
f 23/39/27 21/29/25 37/38/41
f 4/5/3 21/40/25 23/3/27
f 26/33/30 39/37/43 28/30/32
f 24/34/28 25/14/29 39/16/43
f 26/33/30 24/36/28 39/37/43
f 15/24/18 24/13/28 26/35/30

g Icosphere_1
usemtl свет
f 44/26/48 43/5/47 42/3/46
f 45/13/49 44/26/48 42/3/46
f 46/24/50 44/26/48 45/13/49
f 47/22/51 44/26/48 46/24/50
f 48/4/52 43/5/47 44/26/48
f 47/22/51 48/4/52 44/26/48
f 43/44/47 31/42/54 40/41/53
f 40/41/53 42/43/46 43/44/47
f 47/48/51 17/46/56 30/45/55
f 30/45/55 48/47/52 47/48/51
f 46/52/50 19/50/57 17/49/56
f 17/49/56 47/51/51 46/52/50
f 48/56/52 30/54/55 31/53/54
f 31/53/54 43/55/47 48/56/52
f 42/60/46 40/58/53 33/57/58
f 33/57/58 45/59/49 42/60/46
f 45/64/49 33/62/58 19/61/57
f 19/61/57 46/63/50 45/64/49

g Icosphere_2
usemtl 32312
f 5/6/4 4/5/3 2/4/2
f 3/9/5 5/8/4 2/7/2
f 6/10/6 5/8/4 3/9/5
f 8/13/8 6/12/6 3/3/5
f 7/11/9 8/13/8 3/3/5
f 9/14/10 8/13/8 7/11/9
f 11/16/12 9/14/10 7/11/9
f 10/15/13 11/16/12 7/11/9
f 12/17/14 11/16/12 10/15/13
f 14/20/16 12/10/14 10/19/13
f 13/21/17 14/20/16 10/19/13
f 15/24/18 14/23/16 13/22/17
f 16/26/20 15/24/18 13/22/17
f 2/4/2 16/26/20 13/22/17
f 4/5/3 16/26/20 2/4/2
f 17/27/21 8/13/8 9/14/10
f 18/20/22 6/10/6 8/19/8
f 17/21/21 18/20/22 8/19/8
f 19/24/23 18/23/22 17/22/21
f 29/8/33 11/9/12 12/10/14
f 30/34/34 9/14/10 11/16/12
f 29/8/33 30/7/34 11/9/12
f 31/5/35 30/4/34 29/6/33
f 34/3/38 33/2/37 32/1/36
f 35/35/39 19/24/23 33/13/37
f 34/37/38 35/33/39 33/36/37
f 22/30/26 35/33/39 34/37/38
f 36/11/40 34/3/38 32/1/36
f 38/15/42 36/11/40 32/1/36
f 38/15/42 39/16/43 36/11/40
f 28/17/32 39/16/43 38/15/42
f 40/18/44 38/15/42 32/1/36
f 41/29/45 28/30/32 38/38/42
f 40/39/44 41/29/45 38/38/42
f 31/5/35 41/40/45 40/3/44
f 33/13/37 40/3/44 32/31/36
f 20/26/24 35/33/39 22/30/26
f 18/20/22 19/32/23 35/33/39
f 20/26/24 18/20/22 35/33/39
f 6/10/6 18/20/22 20/26/24
f 29/8/33 41/29/45 31/28/35
f 27/26/31 28/30/32 41/29/45
f 29/8/33 27/26/31 41/29/45
f 12/10/14 27/26/31 29/8/33
f 9/25/10 30/4/34 17/22/21

